{"title":"Red.Eye.w.Greg.Gutfeld.2014.01.04.720p.HDTV.x264-HDContentDump","uid":9445185,"size":741012306,"categoryP":"video","categoryS":"hd___tv_shows","magnet":"?xt=urn:btih:a2c92da570869e0161c2cf3efa4512c9f699d117&amp;dn=Red.Eye.w.Greg.Gutfeld.2014.01.04.720p.HDTV.x264-HDContentDump&amp;tr=udp%3A%2F%2Ftracker.openbittorrent.com%3A80&amp;tr=udp%3A%2F%2Fopen.demonii.com%3A1337&amp;tr=udp%3A%2F%2Ftracker.coppersurfer.tk%3A6969&amp;tr=udp%3A%2F%2Fexodus.desync.com%3A6969","seeders":1,"leechers":0,"uploader":"Reive","files":1,"time":1389078725,"description":"Video : HDTVRip - 1280x720 (WS) x264 @ 2081kbps\nAudio : AAC @ 192kbps\nRuntime : 43 min\n\nNotes\nThis show is great. It's not the typical shit Fox News puts out. It's actually funny. Since it's on at 3AM they get away with a lot. Tends to have a more &quot;Libertarian&quot; perspective. They regularly have comedians on.\n\nShow Information\nRed Eye w/Greg Gutfeld is an American late-night/early-morning satirical talk show on the Fox News Channel, airing at 3:00 am ET Tuesday through Saturday and 11:00 pm Saturday and 2:00 am Sunday. The show features panelists and guests discussing the latest news in politics, pop culture, entertainment, business, sports, and religion. The show is hosted by Greg Gutfeld, a self-described libertarian, who is a former Maxim UK editor. \n\nEpisode Information\nSaturday Red Eye with Mickey Kay, Terry Schappert and go get all creepy with Lori Rothman ...and Andy Levy sits in on the panel.\n\nScreenshots &lt;a href=&quot;\nhttp://i.imgur.com/UMYUc35.png&quot; rel=&quot;nofollow&quot; target=&quot;_NEW&quot;&gt;\nhttp://i.imgur.com/UMYUc35.png&lt;/a&gt; &lt;a href=&quot;\nhttp://i.imgur.com/IIj45Ro.png&quot; rel=&quot;nofollow&quot; target=&quot;_NEW&quot;&gt;\nhttp://i.imgur.com/IIj45Ro.png&lt;/a&gt;\n\nGeneral \nComplete name : H:TelevisionRed Eye w Greg GutfeldRed Eye w Greg Gutfeld 2014Red.Eye.w.Greg.Gutfeld.2014.01.04.720p.HDTV.x264-HDContentDump.mp4 \nFormat : MPEG-4 \nFormat profile : Base Media / Version 2 \nCodec ID : mp42 \nFile size : 707 MiB \nDuration : 43mn 24s \nOverall bit rate mode : Variable \nOverall bit rate : 2 276 Kbps \nEncoded date : UTC 2014-01-04 11:51:31 \nTagged date : UTC 2014-01-04 11:51:31 \ngsst : 0 \ngstd : 2605000 \ngssd : B4A7DD664HH1388997658866050 \ngshh : r4---sn-p5qlsu7z.googlevideo.com \n\nVideo\nID : 1 \nFormat : AVC \nFormat/Info : Advanced Video Codec \nFormat profile : &lt;a class=&quot;__cf_email__&quot; href=&quot;/cdn-cgi/l/email-protection&quot; data-cfemail=&quot;2a62434d426a6619041b&quot;&gt;[email&amp;#160;protected]&lt;/a&gt;&lt;script cf-hash='f9e31' type=&quot;text/javascript&quot;&gt;\n/* &lt;![CDATA[ */!function(){try{var t=&quot;currentScript&quot;in document?document.currentScript:function(){for(var t=document.getElementsByTagName(&quot;script&quot;),e=t.length;e--;)if(t[e].getAttribute(&quot;cf-hash&quot;))return t[e]}();if(t&amp;&amp;t.previousSibling){var e,r,n,i,c=t.previousSibling,a=c.getAttribute(&quot;data-cfemail&quot;);if(a){for(e=&quot;&quot;,r=parseInt(a.substr(0,2),16),n=2;a.length-n;n+=2)i=parseInt(a.substr(n,2),16)^r,e+=String.fromCharCode(i);e=document.createTextNode(e),c.parentNode.replaceChild(e,c)}}}catch(u){}}();/* ]]&gt; */&lt;/script&gt; \nFormat settings, CABAC : Yes \nFormat settings, ReFrames : 1 frame \nCodec ID : avc1 \nCodec ID/Info : Advanced Video Coding \nDuration : 43mn 24s \nBit rate : 2 081 Kbps \nMaximum bit rate : 9 381 Kbps \nWidth : 1 280 pixels \nHeight : 720 pixels \nDisplay aspect ratio : 16:9 \nFrame rate mode : Variable \nFrame rate : 29.970 fps \nMinimum frame rate : 29.098 fps \nMaximum frame rate : 29.970 fps \nColor space : YUV \nChroma subsampling : 4:2:0 \nBit depth : 8 bits \nScan type : Progressive \nBits/(Pixel*Frame) : 0.075 \nStream size : 646 MiB (91%) \nTagged date : UTC 2014-01-04 11:53:23 \n\nAudio \nID : 2 \nFormat : AAC \nFormat/Info : Advanced Audio Codec \nFormat profile : LC \nCodec ID : 40 \nDuration : 43mn 24s \nBit rate mode : Variable \nBit rate : 192 Kbps \nMaximum bit rate : 201 Kbps \nChannel(s) : 2 channels \nChannel positions : Front: L R \nSampling rate : 44.1 KHz \nCompression mode : Lossy \nStream size : 59.6 MiB (8%) \nTitle : IsoMedia File Produced by Google, 5-11-2011 \nEncoded date : UTC 2014-01-04 11:52:28 \nTagged date : UTC 2014-01-04 11:53:23","torrent":{"xt":"urn:btih:a2c92da570869e0161c2cf3efa4512c9f699d117","amp;dn":"Red.Eye.w.Greg.Gutfeld.2014.01.04.720p.HDTV.x264-HDContentDump","amp;tr":["udp%3A%2F%2Ftracker.openbittorrent.com%3A80","udp%3A%2F%2Fopen.demonii.com%3A1337","udp%3A%2F%2Ftracker.coppersurfer.tk%3A6969","udp%3A%2F%2Fexodus.desync.com%3A6969"],"infoHash":"a2c92da570869e0161c2cf3efa4512c9f699d117","infoHashBuffer":{"type":"Buffer","data":[162,201,45,165,112,134,158,1,97,194,207,62,250,69,18,201,246,153,209,23]},"announce":[],"urlList":[]}}